<?xml version="1.0" standalone="no"?>
<!DOCTYPE svg PUBLIC "-//W3C//DTD SVG 20010904//EN"
 "http://www.w3.org/TR/2001/REC-SVG-20010904/DTD/svg10.dtd">
<svg version="1.0" xmlns="http://www.w3.org/2000/svg"
 width="1080.000000pt" height="1080.000000pt" viewBox="0 0 1080.000000 1080.000000"
 preserveAspectRatio="xMidYMid meet">

<g transform="translate(0.000000,1080.000000) scale(0.100000,-0.100000)"
fill="#000000" stroke="none">
<path d="M5730 9327 c0 -2 -58 -280 -130 -617 -71 -338 -128 -615 -127 -616 2
-2 132 -31 290 -64 317 -66 432 -76 552 -45 228 59 396 231 451 460 20 85 23
230 5 305 -51 215 -236 395 -472 459 -69 19 -543 121 -561 121 -4 0 -8 -2 -8
-3z m371 -192 c233 -51 301 -80 395 -167 110 -103 154 -205 154 -355 0 -307
-208 -523 -505 -525 -70 -1 -137 9 -299 43 -115 24 -210 49 -213 55 -3 10 185
927 203 987 5 15 12 17 37 12 18 -4 120 -26 228 -50z"/>
<path d="M3875 9123 c-27 -8 -51 -16 -53 -18 -3 -3 377 -1278 383 -1283 2 -2
31 4 63 14 l60 19 -39 129 -39 130 76 128 c46 78 82 127 89 124 7 -2 121 -79
254 -171 l242 -167 75 24 75 23 -291 203 c-159 112 -290 207 -290 211 0 5 61
115 135 245 l134 237 -32 -7 c-18 -3 -52 -14 -77 -23 -44 -16 -47 -20 -218
-306 -95 -160 -183 -307 -196 -329 l-22 -38 -130 433 c-72 238 -134 434 -140
435 -5 1 -31 -5 -59 -13z"/>
<path d="M3420 8447 c-244 -83 -392 -309 -351 -536 35 -194 194 -369 372 -410
258 -60 565 139 586 381 l6 58 -56 0 -55 0 -11 -50 c-23 -108 -92 -191 -201
-244 -58 -28 -75 -31 -155 -31 -79 0 -96 4 -144 29 -73 38 -143 112 -183 193
-30 62 -33 75 -33 163 0 85 3 101 28 149 37 69 103 133 175 168 48 24 70 28
137 28 44 0 90 -4 103 -8 20 -7 24 -3 42 38 11 26 20 51 20 55 0 15 -100 40
-159 40 -31 0 -85 -10 -121 -23z"/>
<path d="M7153 8446 c-202 -49 -362 -241 -380 -456 -19 -228 158 -452 408
-516 67 -17 193 -14 212 5 5 5 6 31 2 58 l-6 50 -52 -8 c-152 -24 -335 78
-409 228 -27 56 -32 76 -32 141 1 86 32 180 56 166 12 -7 329 -211 561 -361
l97 -63 30 47 c153 241 74 540 -176 666 -111 56 -204 69 -311 43z m259 -140
c66 -33 127 -93 160 -156 38 -75 36 -238 -4 -293 -12 -15 -39 0 -281 157 -148
95 -273 178 -280 185 -21 21 70 97 152 128 22 8 67 12 116 11 65 -3 91 -8 137
-32z"/>
<path d="M7812 7529 c-134 -276 -221 -467 -217 -477 3 -9 21 -34 41 -55 l35
-38 487 142 c268 78 492 144 499 148 7 4 -4 23 -30 52 l-42 47 -419 -124
c-231 -68 -421 -122 -423 -120 -2 1 82 177 187 390 104 214 190 392 190 398 0
10 -71 98 -80 98 -3 0 -106 -207 -228 -461z"/>
<path d="M2615 7723 c-124 -27 -247 -139 -326 -295 -31 -61 -59 -162 -59 -214
0 -27 4 -32 31 -38 70 -14 76 -11 82 47 16 158 136 327 261 367 67 21 149 -3
225 -68 l35 -29 -90 -109 c-187 -227 -217 -280 -218 -384 0 -74 16 -114 73
-173 68 -73 149 -96 242 -73 76 20 122 49 191 124 106 115 145 239 111 357 -4
14 11 6 51 -29 l58 -49 38 44 c22 24 38 47 37 51 -2 7 -384 321 -474 390 -87
65 -194 98 -268 81z m385 -340 c64 -52 87 -93 97 -173 11 -97 -61 -239 -156
-304 -85 -59 -202 -40 -251 40 -27 43 -26 117 3 171 18 35 236 313 245 313 1
0 29 -21 62 -47z"/>
<path d="M1952 6918 c-63 -142 -96 -208 -102 -208 -4 0 -47 18 -95 40 -48 23
-89 39 -91 37 -2 -1 -14 -28 -28 -58 l-24 -54 87 -39 c47 -22 89 -42 93 -46 5
-3 -8 -39 -27 -79 -20 -41 -34 -75 -33 -76 6 -5 88 -45 92 -45 3 0 21 34 40
75 19 41 37 75 39 75 2 0 107 -48 233 -106 126 -58 261 -119 301 -135 153 -62
266 -22 343 123 29 53 35 76 38 146 l5 82 -54 0 -54 0 0 -58 c-1 -69 -33 -135
-85 -170 -59 -40 -95 -30 -398 109 -149 68 -272 129 -272 135 0 6 25 64 55
129 30 64 55 120 55 125 0 8 -72 40 -90 40 -5 0 -18 -19 -28 -42z"/>
<path d="M8400 6922 c-89 -30 -160 -71 -218 -125 -63 -61 -97 -115 -123 -198
-63 -203 41 -479 222 -586 86 -50 92 -50 117 2 12 25 22 48 22 50 0 3 -19 14
-42 26 -66 34 -103 66 -142 122 -50 74 -76 155 -76 242 0 82 16 136 59 199 31
44 108 109 124 103 4 -1 77 -162 162 -357 96 -223 160 -356 169 -358 25 -5
132 57 185 108 103 99 146 205 138 345 -10 191 -120 351 -287 417 -78 30 -234
35 -310 10z m274 -122 c76 -29 139 -88 178 -168 29 -59 33 -76 33 -152 0 -73
-4 -93 -28 -142 -30 -60 -119 -151 -144 -146 -11 2 -273 582 -273 604 0 12 51
23 112 23 44 1 86 -6 122 -19z"/>
<path d="M1403 6187 c-110 -126 -182 -381 -154 -550 31 -189 139 -294 312
-305 61 -3 84 -1 121 16 102 45 157 118 262 352 111 243 161 300 263 300 29 0
68 -6 86 -14 74 -30 127 -132 127 -242 0 -153 -73 -343 -173 -449 l-54 -56 38
-29 c20 -17 43 -30 51 -30 20 0 90 75 130 140 84 134 122 279 116 450 -3 97
-8 124 -30 171 -35 76 -88 133 -156 166 -76 37 -195 40 -258 6 -91 -49 -139
-120 -277 -413 -68 -144 -103 -191 -162 -220 -108 -52 -238 17 -274 146 -38
137 15 351 119 483 l39 49 -24 16 c-80 51 -69 50 -102 13z"/>
<path d="M8918 5846 c-356 -67 -650 -125 -654 -128 -3 -4 -1 -32 6 -62 8 -38
16 -56 27 -56 8 0 301 54 652 120 350 66 640 120 644 120 10 0 9 21 -4 80 -6
27 -14 50 -17 49 -4 0 -298 -56 -654 -123z"/>
<path d="M8638 5431 c-83 -27 -138 -62 -201 -130 -88 -96 -127 -200 -127 -339
0 -302 248 -510 559 -472 208 26 370 188 402 403 37 251 -108 480 -345 543
-73 20 -218 17 -288 -5z m325 -143 c77 -36 149 -112 177 -185 31 -83 25 -226
-12 -298 -31 -61 -103 -130 -163 -156 -135 -60 -334 -31 -433 62 -137 129
-146 364 -19 498 80 83 157 112 292 108 83 -2 110 -7 158 -29z"/>
<path d="M1832 4495 c-349 -68 -636 -125 -638 -128 -2 -2 1 -29 7 -60 10 -48
15 -57 33 -57 32 1 1284 245 1292 252 3 4 1 32 -6 62 -10 48 -15 56 -33 55
-12 0 -307 -56 -655 -124z"/>
<path d="M7930 4526 c-10 -25 -20 -52 -22 -61 -2 -12 53 -38 240 -112 l244
-97 -41 -12 c-95 -28 -196 -115 -244 -211 -45 -88 -60 -157 -55 -258 3 -82 8
-101 41 -168 102 -207 377 -326 596 -258 124 39 218 122 278 248 65 135 68
272 8 386 -14 27 -24 51 -23 52 2 2 38 -11 81 -28 42 -16 79 -28 81 -26 2 2
14 27 25 56 l20 52 -597 237 c-328 130 -600 239 -605 241 -4 2 -16 -16 -27
-41z m662 -357 c127 -26 244 -113 291 -217 17 -37 22 -66 22 -137 0 -82 -3
-97 -33 -157 -40 -82 -111 -149 -190 -178 -47 -18 -73 -21 -144 -18 -75 4 -96
9 -161 41 -91 45 -157 113 -187 195 -18 46 -21 73 -18 137 9 165 106 290 257
331 59 16 97 17 163 3z"/>
<path d="M2150 4080 c-239 -83 -521 -179 -627 -216 l-192 -66 21 -56 c12 -32
22 -58 23 -60 2 -1 288 95 638 214 l635 216 -20 59 c-11 32 -25 59 -31 58 -7
0 -208 -67 -447 -149z"/>
<path d="M2300 3644 c-217 -140 -395 -258 -395 -262 0 -10 56 -102 62 -102 3
0 103 62 222 139 251 161 279 176 349 189 139 25 263 -44 339 -190 39 -76 40
-173 0 -240 -36 -62 -72 -90 -342 -263 -126 -81 -232 -149 -234 -151 -2 -2 11
-26 29 -54 21 -33 38 -49 47 -46 45 18 497 319 544 363 124 118 147 266 66
432 -64 130 -180 221 -306 238 l-55 8 67 44 c37 24 67 45 67 48 0 8 -51 93
-58 97 -4 2 -185 -111 -402 -250z"/>
<path d="M7827 3361 c-134 -44 -269 -170 -327 -305 -25 -60 -43 -161 -35 -203
6 -32 7 -33 59 -33 l54 0 4 73 c5 94 39 169 113 246 31 32 80 70 112 87 52 26
68 29 153 29 81 0 102 -4 140 -24 25 -13 50 -28 57 -33 8 -7 -62 -95 -247
-311 l-259 -302 37 -32 c123 -107 298 -149 441 -104 244 76 387 341 312 580
-39 127 -148 247 -281 310 -68 32 -84 36 -175 38 -77 2 -113 -1 -158 -16z
m453 -278 c17 -21 40 -69 52 -106 36 -121 6 -235 -88 -331 -84 -84 -185 -117
-292 -95 -58 12 -126 41 -137 59 -6 9 413 510 427 510 3 0 21 -17 38 -37z"/>
<path d="M7164 2785 c-27 -20 -48 -39 -47 -44 1 -4 66 -100 144 -212 172 -248
203 -308 203 -399 0 -91 -30 -156 -105 -223 l-58 -53 32 -47 c18 -25 35 -47
39 -47 3 0 31 23 62 51 74 67 117 153 119 238 1 33 3 61 4 61 1 0 22 -28 45
-62 24 -34 46 -66 49 -71 8 -11 99 49 99 64 0 7 -505 744 -530 772 -3 4 -28
-9 -56 -28z"/>
<path d="M3601 2460 l-164 -210 -36 29 c-20 15 -134 105 -254 200 -120 94
-222 171 -225 171 -8 -1 -62 -71 -63 -84 0 -4 111 -96 248 -204 136 -107 247
-201 247 -207 -1 -12 -278 -370 -293 -380 -4 -2 -137 98 -295 222 -158 124
-288 224 -290 222 -1 -2 -17 -23 -35 -47 -19 -24 -32 -44 -30 -46 2 -1 152
-118 332 -260 180 -141 334 -259 341 -262 7 -3 162 186 395 482 211 268 385
492 387 498 4 10 -84 87 -97 86 -2 -1 -78 -95 -168 -210z"/>
</g>
</svg>
